<svg width="800" height="192" viewBox="0 0 800 192" fill="none" xmlns="http://www.w3.org/2000/svg">
<g clip-path="url(#clip0_12409_160028)">
<path d="M353.669 44.6488V26.5088H307.617H285.515H239.687V44.6488H285.515V166.705H307.617V44.6488H353.669Z" fill="#1E2126"/>
<path d="M414.648 68.8719C406.645 64.6827 397.683 62.5968 388.624 62.8154H387.61C378.667 62.639 369.832 64.7618 361.974 68.9748C354.512 73.0724 348.47 79.2844 344.63 86.8061C340.309 95.6685 338.202 105.422 338.486 115.251V116.721C338.228 126.413 340.373 136.021 344.735 144.71C348.576 152.197 354.573 158.399 361.974 162.542C369.811 166.766 378.635 168.889 387.566 168.701H388.58C397.65 168.918 406.621 166.794 414.603 162.542C422.063 158.44 428.144 152.278 432.097 144.813C436.584 136.094 438.783 126.406 438.494 116.633V115.163C438.785 105.277 436.603 95.473 432.141 86.615C428.231 79.1166 422.14 72.9387 414.648 68.8719V68.8719ZM415.975 116.633C416.232 123.445 415.08 130.237 412.59 136.596C410.752 141.226 407.46 145.156 403.195 147.812C398.765 150.313 393.727 151.573 388.624 151.458H387.61C382.588 151.608 377.624 150.354 373.294 147.841C369.108 145.125 365.914 141.158 364.182 136.522C361.858 130.195 360.78 123.49 361.005 116.765V115.163C360.797 108.41 361.875 101.679 364.182 95.3175C365.906 90.6306 369.097 86.605 373.294 83.822C377.598 81.2353 382.572 79.938 387.61 80.0881H388.624C393.718 79.9584 398.749 81.2147 403.165 83.7191C407.472 86.4065 410.771 90.4068 412.56 95.1117C414.961 101.523 416.075 108.333 415.841 115.163L415.975 116.633Z" fill="#1E2126"/>
<path d="M478.268 26.5063H456.585V166.687H478.268V26.5063Z" fill="#1E2126"/>
<path d="M572.713 68.8723C564.712 64.68 555.749 62.5939 546.69 62.8158H545.676C536.738 62.6454 527.909 64.7679 520.055 68.9752C512.61 73.0862 506.581 79.2954 502.74 86.8066C498.423 95.6701 496.322 105.423 496.611 115.251V116.721C496.33 126.433 498.471 136.063 502.845 144.769C506.688 152.23 512.673 158.411 520.055 162.542C527.893 166.764 536.716 168.888 545.646 168.701H546.66C555.731 168.918 564.702 166.795 572.684 162.542C580.133 158.436 586.203 152.274 590.147 144.814C594.633 136.093 596.837 126.407 596.56 116.633V115.163C596.823 105.278 594.621 95.4806 590.147 86.6302C586.26 79.1316 580.189 72.9481 572.713 68.8723V68.8723ZM574.041 116.633C574.297 123.445 573.146 130.237 570.655 136.596C568.817 141.227 565.525 145.157 561.26 147.812C556.883 150.245 551.922 151.469 546.899 151.355H545.885C540.862 151.505 535.898 150.251 531.568 147.739C527.378 145.026 524.184 141.058 522.456 136.42C520.103 130.089 519 123.373 519.205 116.633V115.06C518.994 108.303 520.071 101.566 522.381 95.2004C524.097 90.5089 527.29 86.481 531.493 83.7048C535.796 81.1138 540.77 79.8114 545.81 79.9563H546.899C551.994 79.8249 557.027 81.0868 561.439 83.6019C565.729 86.3094 569.002 90.326 570.76 95.0387C573.19 101.469 574.325 108.305 574.1 115.163L574.041 116.633Z" fill="#1E2126"/>
<path d="M703.981 65.2267H679.225L636.469 110.018V26.5063H614.755V166.702H636.469V117.868L681.074 166.702H708.067L658.152 112.635L703.981 65.2267Z" fill="#1E2126"/>
<path d="M798.62 158.41C798.155 154.871 797.921 151.307 797.919 147.738V98.3306C797.919 85.6884 794.23 76.6037 786.853 71.0764C779.476 65.5492 769.087 62.7953 755.685 62.8149H755.088C747.179 62.7456 739.298 63.7347 731.659 65.755C726.278 67.0168 721.081 68.9482 716.194 71.5027V91.0687C719.058 88.8057 722.311 87.068 725.798 85.9383C730.278 84.3529 734.875 83.1096 739.548 82.2192C744.225 81.2376 748.994 80.7449 753.776 80.7492H754.581C760.285 80.3793 765.966 81.7497 770.851 84.6741C774.609 87.2908 776.484 91.9605 776.474 98.6834V104.725H760.069C743.704 104.725 731.396 107.352 723.144 112.605C714.892 117.857 710.771 125.854 710.781 136.595V137.624C710.781 147.424 713.982 155.019 720.385 160.41C727.232 165.937 735.895 168.803 744.738 168.465H745.961C752.454 168.687 758.907 167.377 764.782 164.643C769.922 162.018 774.134 157.917 776.861 152.883C776.849 155.652 777.084 158.416 777.562 161.145C777.868 163.108 778.455 165.019 779.307 166.819H800.424C799.535 164.083 798.931 161.266 798.62 158.41V158.41ZM776.444 137.036C774.728 141.313 771.567 144.875 767.496 147.121C762.745 149.78 757.343 151.102 751.882 150.943H751.047C746.174 151.225 741.338 149.957 737.252 147.326C735.595 146.127 734.267 144.539 733.39 142.706C732.512 140.873 732.112 138.854 732.226 136.83V136.095C732.044 133.645 732.589 131.196 733.793 129.045C734.998 126.895 736.811 125.136 739.012 123.982C743.59 121.572 750.644 120.337 760.203 120.337H776.444V137.036Z" fill="#1E2126"/>
<g clip-path="url(#clip1_12409_160028)">
<path fill-rule="evenodd" clip-rule="evenodd" d="M94.3003 6.01514C95.6309 6.01514 96.7097 7.09386 96.7097 8.42453V71.8908C96.7097 73.2215 95.6309 74.3002 94.3003 74.3002C92.9696 74.3002 91.8909 73.2215 91.8909 71.8908V8.42453C91.8909 7.09386 92.9696 6.01514 94.3003 6.01514Z" fill="#1E2126"/>
<path fill-rule="evenodd" clip-rule="evenodd" d="M59.7508 12.8921C60.9801 12.3828 62.3896 12.9666 62.8988 14.196L87.1874 72.8312C87.6966 74.0606 87.1129 75.47 85.8835 75.9793C84.6541 76.4885 83.2447 75.9048 82.7354 74.6754L58.4469 16.0401C57.9376 14.8107 58.5214 13.4013 59.7508 12.8921Z" fill="#1E2126"/>
<path fill-rule="evenodd" clip-rule="evenodd" d="M30.4607 32.4611C31.4016 31.5201 32.9272 31.5201 33.8681 32.4611L78.7466 77.3396C79.6876 78.2805 79.6876 79.8061 78.7466 80.747C77.8057 81.6879 76.2802 81.6879 75.3392 80.747L30.4607 35.8685C29.5198 34.9275 29.5198 33.402 30.4607 32.4611Z" fill="#1E2126"/>
<path fill-rule="evenodd" clip-rule="evenodd" d="M10.8897 61.7526C11.399 60.5232 12.8084 59.9395 14.0378 60.4487L72.6731 84.7373C73.9024 85.2465 74.4862 86.6559 73.977 87.8853C73.4677 89.1147 72.0583 89.6985 70.8289 89.1892L12.1936 64.9006C10.9643 64.3914 10.3805 62.982 10.8897 61.7526Z" fill="#1E2126"/>
<path fill-rule="evenodd" clip-rule="evenodd" d="M4.01636 96.3015C4.01636 94.9708 5.09508 93.8921 6.42575 93.8921H69.8921C71.2227 93.8921 72.3015 94.9708 72.3015 96.3015C72.3015 97.6322 71.2227 98.7109 69.8921 98.7109H6.42575C5.09508 98.7109 4.01636 97.6322 4.01636 96.3015Z" fill="#1E2126"/>
<path fill-rule="evenodd" clip-rule="evenodd" d="M73.977 104.72C74.4862 105.95 73.9024 107.359 72.6731 107.868L14.0378 132.157C12.8084 132.666 11.399 132.082 10.8897 130.853C10.3805 129.624 10.9643 128.214 12.1936 127.705L70.8289 103.416C72.0583 102.907 73.4677 103.491 73.977 104.72Z" fill="#1E2126"/>
<path fill-rule="evenodd" clip-rule="evenodd" d="M78.7466 111.86C79.6876 112.801 79.6876 114.327 78.7466 115.268L33.8681 160.146C32.9272 161.087 31.4016 161.087 30.4607 160.146C29.5198 159.205 29.5198 157.68 30.4607 156.739L75.3392 111.86C76.2802 110.92 77.8057 110.92 78.7466 111.86Z" fill="#1E2126"/>
<path fill-rule="evenodd" clip-rule="evenodd" d="M85.8835 116.634C87.1129 117.143 87.6966 118.553 87.1874 119.782L62.8988 178.418C62.3896 179.647 60.9801 180.231 59.7508 179.722C58.5214 179.212 57.9376 177.803 58.4469 176.573L82.7354 117.938C83.2447 116.709 84.6541 116.125 85.8835 116.634Z" fill="#1E2126"/>
<path fill-rule="evenodd" clip-rule="evenodd" d="M94.3003 118.308C95.6309 118.308 96.7097 119.387 96.7097 120.717V184.184C96.7097 185.514 95.6309 186.593 94.3003 186.593C92.9696 186.593 91.8909 185.514 91.8909 184.184V120.717C91.8909 119.387 92.9696 118.308 94.3003 118.308Z" fill="#1E2126"/>
<path fill-rule="evenodd" clip-rule="evenodd" d="M102.722 116.634C103.951 116.125 105.361 116.709 105.87 117.938L130.159 176.573C130.668 177.803 130.084 179.212 128.855 179.722C127.625 180.231 126.216 179.647 125.707 178.418L101.418 119.782C100.909 118.553 101.493 117.143 102.722 116.634Z" fill="#1E2126"/>
<path fill-rule="evenodd" clip-rule="evenodd" d="M109.859 111.86C110.8 110.92 112.325 110.92 113.266 111.86L158.145 156.739C159.085 157.68 159.085 159.205 158.145 160.146C157.204 161.087 155.678 161.087 154.737 160.146L109.859 115.268C108.918 114.327 108.918 112.801 109.859 111.86Z" fill="#1E2126"/>
<path fill-rule="evenodd" clip-rule="evenodd" d="M114.628 104.72C115.137 103.491 116.546 102.907 117.776 103.416L176.411 127.705C177.64 128.214 178.224 129.624 177.715 130.853C177.206 132.082 175.796 132.666 174.567 132.157L115.932 107.868C114.702 107.359 114.119 105.95 114.628 104.72Z" fill="#1E2126"/>
<path fill-rule="evenodd" clip-rule="evenodd" d="M116.305 96.3015C116.305 94.9708 117.384 93.8921 118.715 93.8921H182.181C183.512 93.8921 184.59 94.9708 184.59 96.3015C184.59 97.6322 183.512 98.7109 182.181 98.7109H118.715C117.384 98.7109 116.305 97.6322 116.305 96.3015Z" fill="#1E2126"/>
<path fill-rule="evenodd" clip-rule="evenodd" d="M177.715 61.7526C178.224 62.982 177.64 64.3914 176.411 64.9006L117.776 89.1892C116.546 89.6985 115.137 89.1147 114.628 87.8853C114.119 86.6559 114.702 85.2465 115.932 84.7373L174.567 60.4487C175.796 59.9395 177.206 60.5232 177.715 61.7526Z" fill="#1E2126"/>
<path fill-rule="evenodd" clip-rule="evenodd" d="M158.145 32.4611C159.086 33.402 159.086 34.9275 158.145 35.8685L113.266 80.747C112.325 81.6879 110.8 81.6879 109.859 80.747C108.918 79.8061 108.918 78.2805 109.859 77.3396L154.737 32.4611C155.678 31.5201 157.204 31.5201 158.145 32.4611Z" fill="#1E2126"/>
<path fill-rule="evenodd" clip-rule="evenodd" d="M128.855 12.8921C130.084 13.4013 130.668 14.8107 130.159 16.0401L105.87 74.6754C105.361 75.9048 103.951 76.4885 102.722 75.9793C101.493 75.47 100.909 74.0606 101.418 72.8312L125.707 14.196C126.216 12.9666 127.625 12.3828 128.855 12.8921Z" fill="#1E2126"/>
<path fill-rule="evenodd" clip-rule="evenodd" d="M94.3002 2C97.8486 2 100.725 4.87659 100.725 8.42505V39.564C100.725 43.1125 97.8486 45.9891 94.3002 45.9891C90.7517 45.9891 87.8751 43.1125 87.8751 39.564V8.42505C87.8751 4.87659 90.7517 2 94.3002 2Z" fill="#1E2126"/>
<path fill-rule="evenodd" clip-rule="evenodd" d="M58.2132 9.18362C61.4916 7.8257 65.25 9.38252 66.608 12.6609L80.5671 46.3617C81.925 49.6401 80.3682 53.3985 77.0899 54.7565C73.8115 56.1144 70.0531 54.5576 68.6951 51.2792L54.736 17.5783C53.3781 14.3 54.9349 10.5415 58.2132 9.18362Z" fill="#1E2126"/>
<path fill-rule="evenodd" clip-rule="evenodd" d="M27.6216 29.6221C30.1307 27.1129 34.1989 27.1129 36.708 29.6221L65.3927 58.3068C67.9018 60.8159 67.9018 64.8841 65.3927 67.3932C62.8836 69.9023 58.8154 69.9023 56.3063 67.3932L27.6216 38.7085C25.1125 36.1993 25.1125 32.1312 27.6216 29.6221Z" fill="#1E2126"/>
<path fill-rule="evenodd" clip-rule="evenodd" d="M7.1797 60.2168C8.53776 56.9385 12.2963 55.3818 15.5746 56.7399L55.3723 73.2265C58.6506 74.5846 60.2073 78.3431 58.8492 81.6214C57.4912 84.8997 53.7326 86.4563 50.4544 85.0982L10.6566 68.6116C7.37829 67.2536 5.82163 63.4951 7.1797 60.2168Z" fill="#1E2126"/>
<path fill-rule="evenodd" clip-rule="evenodd" d="M0 96.302C0 92.7535 2.87659 89.877 6.42505 89.877H50.3649C53.9134 89.877 56.79 92.7535 56.79 96.302C56.79 99.8505 53.9134 102.727 50.3649 102.727H6.42505C2.87659 102.727 0 99.8505 0 96.302Z" fill="#1E2126"/>
<path fill-rule="evenodd" clip-rule="evenodd" d="M58.8492 110.985C60.2073 114.264 58.6506 118.022 55.3723 119.38L15.5746 135.867C12.2963 137.225 8.53776 135.668 7.1797 132.39C5.82163 129.112 7.37829 125.353 10.6566 123.995L50.4544 107.508C53.7326 106.15 57.4912 107.707 58.8492 110.985Z" fill="#1E2126"/>
<path fill-rule="evenodd" clip-rule="evenodd" d="M65.3924 125.206C67.9017 127.715 67.902 131.783 65.393 134.293L36.7083 162.982C34.1994 165.491 30.1313 165.491 27.6219 162.982C25.1126 160.473 25.1123 156.405 27.6213 153.896L56.306 125.207C58.8149 122.698 62.883 122.697 65.3924 125.206Z" fill="#1E2126"/>
<path fill-rule="evenodd" clip-rule="evenodd" d="M77.0899 137.857C80.3682 139.215 81.925 142.973 80.5671 146.252L66.608 179.953C65.25 183.231 61.4916 184.788 58.2132 183.43C54.9349 182.072 53.3781 178.313 54.736 175.035L68.6951 141.334C70.0531 138.056 73.8115 136.499 77.0899 137.857Z" fill="#1E2126"/>
<path fill-rule="evenodd" clip-rule="evenodd" d="M94.3002 146.615C97.8486 146.615 100.725 149.491 100.725 153.04V184.179C100.725 187.727 97.8486 190.604 94.3002 190.604C90.7517 190.604 87.8751 187.727 87.8751 184.179V153.04C87.8751 149.491 90.7517 146.615 94.3002 146.615Z" fill="#1E2126"/>
<path fill-rule="evenodd" clip-rule="evenodd" d="M115.802 148.202C119.08 146.844 122.839 148.4 124.197 151.678L133.868 175.02C135.226 178.298 133.669 182.057 130.391 183.415C127.113 184.773 123.354 183.216 121.996 179.938L112.326 156.597C110.967 153.319 112.524 149.56 115.802 148.202Z" fill="#1E2126"/>
<path fill-rule="evenodd" clip-rule="evenodd" d="M137.856 139.849C140.365 137.34 144.433 137.34 146.943 139.849L160.984 153.89C163.493 156.399 163.493 160.467 160.984 162.976C158.474 165.486 154.406 165.486 151.897 162.976L137.856 148.936C135.347 146.426 135.347 142.358 137.856 139.849Z" fill="#1E2126"/>
<path fill-rule="evenodd" clip-rule="evenodd" d="M154.749 121.339C156.107 118.061 159.865 116.504 163.143 117.862L177.947 123.993C181.225 125.351 182.782 129.109 181.424 132.388C180.066 135.666 176.308 137.223 173.029 135.865L158.226 129.734C154.948 128.376 153.391 124.618 154.749 121.339Z" fill="#1E2126"/>
<path fill-rule="evenodd" clip-rule="evenodd" d="M161.107 96.302C161.107 92.7535 163.984 89.877 167.532 89.877H182.18C185.728 89.877 188.605 92.7535 188.605 96.302C188.605 99.8505 185.728 102.727 182.18 102.727H167.532C163.984 102.727 161.107 99.8505 161.107 96.302Z" fill="#1E2126"/>
<path fill-rule="evenodd" clip-rule="evenodd" d="M181.424 60.2171C182.782 63.4955 181.225 67.2539 177.947 68.6118L163.143 74.7431C159.865 76.101 156.107 74.5441 154.749 71.2658C153.391 67.9874 154.948 64.229 158.226 62.8711L173.029 56.7397C176.308 55.3819 180.066 56.9387 181.424 60.2171Z" fill="#1E2126"/>
<path fill-rule="evenodd" clip-rule="evenodd" d="M160.984 29.6221C163.493 32.1312 163.493 36.1993 160.984 38.7085L146.943 52.7494C144.433 55.2586 140.365 55.2586 137.856 52.7494C135.347 50.2403 135.347 46.1722 137.856 43.663L151.897 29.6221C154.406 27.113 158.474 27.1129 160.984 29.6221Z" fill="#1E2126"/>
<path fill-rule="evenodd" clip-rule="evenodd" d="M130.391 9.18384C133.669 10.5421 135.226 14.3006 133.868 17.5789L124.197 40.9202C122.839 44.1984 119.08 45.7549 115.802 44.3967C112.524 43.0385 110.967 39.2799 112.326 36.0016L121.996 12.6603C123.354 9.3821 127.113 7.82562 130.391 9.18384Z" fill="#1E2126"/>
</g>
</g>
<defs>
<clipPath id="clip0_12409_160028">
<rect width="800" height="188.605" fill="white" transform="translate(0 2)"/>
</clipPath>
<clipPath id="clip1_12409_160028">
<rect width="188.605" height="188.605" fill="white" transform="translate(0 2)"/>
</clipPath>
</defs>
</svg>
